<svg xmlns="http://www.w3.org/2000/svg" width="411" height="250" style="width:100%;height:100%;transform:translate3d(0,0,0)"><defs><clipPath id="s"><path d="M0 0h411v250H0z"/></clipPath><clipPath id="t"><path d="M0 0h1423v912H0z"/></clipPath><clipPath id="bt"><path d="M0 0h1423v912H0z"/></clipPath><clipPath id="bs"><path d="M0 0h1423v912H0z"/></clipPath><clipPath id="bn"><path d="M0 0h1423v912H0z"/></clipPath><clipPath id="bq"><path d="M0 0h1423v912H0z"/></clipPath><clipPath id="be"><path d="M0 0h1423v912H0z"/></clipPath><clipPath id="bl"><path d="M0 0h1423v912H0z"/></clipPath><clipPath id="bk"><path d="M0 0h1423v912H0z"/></clipPath><clipPath id="bj"><path d="M0 0h1423v912H0z"/></clipPath><clipPath id="bh"><path d="M0 0h1423v912H0z"/></clipPath><clipPath id="bd"><path d="M0 0h1423v912H0z"/></clipPath><clipPath id="bc"><path d="M0 0h1423v912H0z"/></clipPath><clipPath id="bb"><path d="M0 0h1423v912H0z"/></clipPath><clipPath id="ba"><path d="M0 0h1423v912H0z"/></clipPath><clipPath id="aV"><path d="M0 0h1423v912H0z"/></clipPath><clipPath id="aY"><path d="M0 0h1423v912H0z"/></clipPath><clipPath id="aK"><path d="M0 0h1423v1010H0z"/></clipPath><clipPath id="aU"><path d="M0 0h1423v912H0z"/></clipPath><clipPath id="aT"><path d="M0 0h1423v912H0z"/></clipPath><clipPath id="aS"><path d="M0 0h101v133H0z"/></clipPath><clipPath id="aN"><path d="M0 0h1423v912H0z"/></clipPath><clipPath id="aC"><path d="M0 0h1423v912H0z"/></clipPath><clipPath id="aJ"><path d="M0 0h101v133H0z"/></clipPath><clipPath id="aI"><path d="M0 0h101v133H0z"/></clipPath><clipPath id="aF"><path d="M0 0h1423v912H0z"/></clipPath><clipPath id="ar"><path d="M0 0h1423v912H0z"/></clipPath><clipPath id="aB"><path d="M0 0h1423v912H0z"/></clipPath><clipPath id="aA"><path d="M0 0h1423v912H0z"/></clipPath><clipPath id="az"><path d="M0 0h101v133H0z"/></clipPath><clipPath id="au"><path d="M0 0h1423v912H0z"/></clipPath><clipPath id="ai"><path d="M0 0h1423v912H0z"/></clipPath><clipPath id="aq"><path d="M0 0h101v133H0z"/></clipPath><clipPath id="ap"><path d="M0 0h101v133H0z"/></clipPath><clipPath id="al"><path d="M0 0h1423v912H0z"/></clipPath><clipPath id="X"><path d="M0 0h1423v912H0z"/></clipPath><clipPath id="ah"><path d="M0 0h1423v912H0z"/></clipPath><clipPath id="ag"><path d="M0 0h1423v912H0z"/></clipPath><clipPath id="af"><path d="M0 0h101v133H0z"/></clipPath><clipPath id="aa"><path d="M0 0h1423v912H0z"/></clipPath><clipPath id="O"><path d="M0 0h1423v912H0z"/></clipPath><clipPath id="W"><path d="M0 0h101v133H0z"/></clipPath><clipPath id="V"><path d="M0 0h101v133H0z"/></clipPath><clipPath id="R"><path d="M0 0h1423v912H0z"/></clipPath><clipPath id="D"><path d="M0 0h1423v912H0z"/></clipPath><clipPath id="N"><path d="M0 0h1423v912H0z"/></clipPath><clipPath id="M"><path d="M0 0h1423v912H0z"/></clipPath><clipPath id="L"><path d="M0 0h101v133H0z"/></clipPath><clipPath id="G"><path d="M0 0h1423v912H0z"/></clipPath><clipPath id="u"><path d="M0 0h1423v912H0z"/></clipPath><clipPath id="C"><path d="M0 0h101v133H0z"/></clipPath><clipPath id="B"><path d="M0 0h101v133H0z"/></clipPath><clipPath id="x"><path d="M0 0h1423v912H0z"/></clipPath><linearGradient id="br" gradientUnits="userSpaceOnUse" spreadMethod="pad"><stop/><stop/><stop/></linearGradient><linearGradient id="bo" gradientUnits="userSpaceOnUse" spreadMethod="pad"><stop/><stop/><stop/></linearGradient><linearGradient id="a" gradientUnits="userSpaceOnUse" spreadMethod="pad"><stop stop-color="#FFF"/><stop stop-color="#FFF"/><stop stop-color="#FFF"/><stop stop-color="#FFF"/><stop stop-color="#FFF"/></linearGradient><linearGradient id="bi" gradientUnits="userSpaceOnUse" spreadMethod="pad"><stop/><stop/><stop/></linearGradient><linearGradient id="bf" gradientUnits="userSpaceOnUse" spreadMethod="pad"><stop/><stop/><stop/></linearGradient><linearGradient id="b" gradientUnits="userSpaceOnUse" spreadMethod="pad"><stop stop-color="#FFF"/><stop stop-color="#FFF"/><stop stop-color="#FFF"/><stop stop-color="#FFF"/><stop stop-color="#FFF"/></linearGradient><linearGradient id="aZ" x1="4.609" x2="5.831" y1="-49.207" y2="35.679" gradientUnits="userSpaceOnUse" spreadMethod="pad"><stop offset="0%" stop-color="#C1EFF4"/><stop offset="59%" stop-color="#E0F7F9"/><stop offset="100%" stop-color="#FFF"/></linearGradient><linearGradient id="aW" x1="0" x2="-1.44" y1="-139" y2="88.675" gradientUnits="userSpaceOnUse" spreadMethod="pad"><stop offset="0%" stop-color="#C1EFF4"/><stop offset="53%" stop-color="#70888C"/><stop offset="90%" stop-color="#202124"/></linearGradient><linearGradient id="c" x1="0" x2="-1.44" y1="-139" y2="88.675" gradientUnits="userSpaceOnUse" spreadMethod="pad"><stop offset="0%" stop-color="#FFF"/><stop offset="16%" stop-color="#FFF"/><stop offset="38%" stop-color="#FFF"/><stop offset="55%" stop-color="#FFF" stop-opacity=".5"/><stop offset="90%" stop-color="#FFF" stop-opacity="0"/></linearGradient><linearGradient id="aO" gradientUnits="userSpaceOnUse" spreadMethod="pad"><stop/><stop/><stop/></linearGradient><linearGradient id="aL" gradientUnits="userSpaceOnUse" spreadMethod="pad"><stop/><stop/><stop/></linearGradient><linearGradient id="e" gradientUnits="userSpaceOnUse" spreadMethod="pad"><stop stop-color="#FFF"/><stop stop-color="#FFF"/><stop stop-color="#FFF"/><stop stop-color="#FFF"/><stop stop-color="#FFF"/></linearGradient><linearGradient id="aG" gradientUnits="userSpaceOnUse" spreadMethod="pad"><stop/><stop/><stop/></linearGradient><linearGradient id="aD" gradientUnits="userSpaceOnUse" spreadMethod="pad"><stop/><stop/><stop/></linearGradient><linearGradient id="f" gradientUnits="userSpaceOnUse" spreadMethod="pad"><stop stop-color="#FFF"/><stop stop-color="#FFF"/><stop stop-color="#FFF"/><stop stop-color="#FFF"/><stop stop-color="#FFF"/></linearGradient><linearGradient id="av" gradientUnits="userSpaceOnUse" spreadMethod="pad"><stop/><stop/><stop/></linearGradient><linearGradient id="as" gradientUnits="userSpaceOnUse" spreadMethod="pad"><stop/><stop/><stop/></linearGradient><linearGradient id="h" gradientUnits="userSpaceOnUse" spreadMethod="pad"><stop stop-color="#FFF"/><stop stop-color="#FFF"/><stop stop-color="#FFF"/><stop stop-color="#FFF"/><stop stop-color="#FFF"/></linearGradient><linearGradient id="am" gradientUnits="userSpaceOnUse" spreadMethod="pad"><stop/><stop/><stop/></linearGradient><linearGradient id="aj" gradientUnits="userSpaceOnUse" spreadMethod="pad"><stop/><stop/><stop/></linearGradient><linearGradient id="j" gradientUnits="userSpaceOnUse" spreadMethod="pad"><stop stop-color="#FFF"/><stop stop-color="#FFF"/><stop stop-color="#FFF"/><stop stop-color="#FFF"/><stop stop-color="#FFF"/></linearGradient><linearGradient id="ab" gradientUnits="userSpaceOnUse" spreadMethod="pad"><stop/><stop/><stop/></linearGradient><linearGradient id="Y" gradientUnits="userSpaceOnUse" spreadMethod="pad"><stop/><stop/><stop/></linearGradient><linearGradient id="l" gradientUnits="userSpaceOnUse" spreadMethod="pad"><stop stop-color="#FFF"/><stop stop-color="#FFF"/><stop stop-color="#FFF"/><stop stop-color="#FFF"/><stop stop-color="#FFF"/></linearGradient><linearGradient id="S" gradientUnits="userSpaceOnUse" spreadMethod="pad"><stop/><stop/><stop/></linearGradient><linearGradient id="P" gradientUnits="userSpaceOnUse" spreadMethod="pad"><stop/><stop/><stop/></linearGradient><linearGradient id="n" gradientUnits="userSpaceOnUse" spreadMethod="pad"><stop stop-color="#FFF"/><stop stop-color="#FFF"/><stop stop-color="#FFF"/><stop stop-color="#FFF"/><stop stop-color="#FFF"/></linearGradient><linearGradient id="H" gradientUnits="userSpaceOnUse" spreadMethod="pad"><stop/><stop/><stop/></linearGradient><linearGradient id="E" gradientUnits="userSpaceOnUse" spreadMethod="pad"><stop/><stop/><stop/></linearGradient><linearGradient id="p" gradientUnits="userSpaceOnUse" spreadMethod="pad"><stop stop-color="#FFF"/><stop stop-color="#FFF"/><stop stop-color="#FFF"/><stop stop-color="#FFF"/><stop stop-color="#FFF"/></linearGradient><linearGradient id="y" gradientUnits="userSpaceOnUse" spreadMethod="pad"><stop/><stop/><stop/></linearGradient><linearGradient id="v" gradientUnits="userSpaceOnUse" spreadMethod="pad"><stop/><stop/><stop/></linearGradient><linearGradient id="r" gradientUnits="userSpaceOnUse" spreadMethod="pad"><stop stop-color="#FFF"/><stop stop-color="#FFF"/><stop stop-color="#FFF"/><stop stop-color="#FFF"/><stop stop-color="#FFF"/></linearGradient><mask id="bp"/><mask id="bm"/><mask id="bg"/><mask id="aX"><path fill="url(#c)" d="M231.07 71.907 189.768-30.139l-66.976-42.419-47.711-23.884-84.435 32.664-67.11 29.732-70.068-1.188-47.7 22.955-36.838 84.837 462.14-.651z"/></mask><mask id="aR" mask-type="alpha"><g filter="url(#d)"/></mask><mask id="aP"/><mask id="aQ"/><mask id="aM"/><mask id="aH"><path fill="#fff" d="M0 0h411v250H0V0m-38.296 69.829-.067 58.19 116.402-1.603s.375-58.186.067-58.19C37.822 91.942-38.296 69.829-38.296 69.829"/></mask><mask id="aE"/><mask id="ay" mask-type="alpha"><g filter="url(#g)"/></mask><mask id="aw"/><mask id="ax"/><mask id="at"/><mask id="an"><path fill="#fff" d="M0 0h411v250H0V0m-38.296 69.829-.067 58.19 116.402-1.603s.375-58.186.067-58.19C37.822 91.942-38.296 69.829-38.296 69.829"/></mask><mask id="ao" mask-type="alpha"><g filter="url(#i)"/></mask><mask id="ak"/><mask id="ae" mask-type="alpha"><g filter="url(#k)"/></mask><mask id="ac"/><mask id="ad"/><mask id="Z"/><mask id="T"><path fill="#fff" d="M0 0h411v250H0V0m-38.296 69.829-.067 58.19 116.402-1.603s.375-58.186.067-58.19C37.822 91.942-38.296 69.829-38.296 69.829"/></mask><mask id="U" mask-type="alpha"><g filter="url(#m)"/></mask><mask id="Q"/><mask id="K" mask-type="alpha"><g filter="url(#o)"/></mask><mask id="I"/><mask id="J"/><mask id="F"/><mask id="z"><path fill="#fff" d="M0 0h411v250H0V0m-38.296 69.829-.067 58.19 116.402-1.603s.375-58.186.067-58.19C37.822 91.942-38.296 69.829-38.296 69.829"/></mask><mask id="A" mask-type="alpha"><g filter="url(#q)"/></mask><mask id="w"/><filter id="d" width="100%" height="100%" x="0%" y="0%" filterUnits="objectBoundingBox"><feComponentTransfer in="SourceGraphic"><feFuncA tableValues="1.0 0.0" type="table"/></feComponentTransfer></filter><filter id="g" width="100%" height="100%" x="0%" y="0%" filterUnits="objectBoundingBox"><feComponentTransfer in="SourceGraphic"><feFuncA tableValues="1.0 0.0" type="table"/></feComponentTransfer></filter><filter id="i" width="100%" height="100%" x="0%" y="0%" filterUnits="objectBoundingBox"><feComponentTransfer in="SourceGraphic"><feFuncA tableValues="1.0 0.0" type="table"/></feComponentTransfer></filter><filter id="k" width="100%" height="100%" x="0%" y="0%" filterUnits="objectBoundingBox"><feComponentTransfer in="SourceGraphic"><feFuncA tableValues="1.0 0.0" type="table"/></feComponentTransfer></filter><filter id="m" width="100%" height="100%" x="0%" y="0%" filterUnits="objectBoundingBox"><feComponentTransfer in="SourceGraphic"><feFuncA tableValues="1.0 0.0" type="table"/></feComponentTransfer></filter><filter id="o" width="100%" height="100%" x="0%" y="0%" filterUnits="objectBoundingBox"><feComponentTransfer in="SourceGraphic"><feFuncA tableValues="1.0 0.0" type="table"/></feComponentTransfer></filter><filter id="q" width="100%" height="100%" x="0%" y="0%" filterUnits="objectBoundingBox"><feComponentTransfer in="SourceGraphic"><feFuncA tableValues="1.0 0.0" type="table"/></feComponentTransfer></filter></defs><g clip-path="url(#s)"><g clip-path="url(#t)" opacity=".9" style="display:block" transform="matrix(.4 0 0 .4 -64.6 -95.4)"><g clip-path="url(#aV)" opacity="1" style="display:block"><path fill="url(#aW)" d="M231.07 71.907 189.768-30.139l-66.976-42.419-47.711-23.884-84.435 32.664-67.11 29.732-70.068-1.188-47.7 22.955-36.838 84.837 462.14-.651z" mask="url(#aX)" opacity="1" style="display:block" transform="translate(828.648 728.517)"/><g opacity=".25" style="display:block"><path fill="#B2EBF2" d="M694.696 793.645a1.5 1.5 0 0 1-1.018-2.601l34.797-32.138 71.056-3.999 43.122 19.124a1.5 1.5 0 1 1-1.217 2.742l-42.46-18.831-69.257 3.898-34.005 31.407a1.499 1.499 0 0 1-1.018.398zM627.719 811.506a1.502 1.502 0 0 1-1.408-2.021l24.904-67.357 41.685-1.688 28.603-30.804a1.5 1.5 0 1 1 2.198 2.042l-29.443 31.708-40.922 1.659-24.211 65.482a1.5 1.5 0 0 1-1.406.979zM1001.672 792.529a1.5 1.5 0 0 1-1.449-1.116l-15.497-58.668-33.082-25.363a1.5 1.5 0 1 1 1.826-2.381l33.894 25.987 15.759 59.658a1.5 1.5 0 0 1-1.451 1.883z" opacity="1"/></g><g opacity="1" style="display:block"><path fill="#26C6DA" d="M854.383 620.762c-12.45-11.704-27.999-25.752-40.294-35.043-8.195-6.192-14.945-10.271-18.369-10.131-8.132.332-20.013 4.808-30.725 9.674-7.301 3.316-14.059 6.814-18.716 9.302-9.632 5.148-22.838 15.628-29.536 28.466-6.23 11.941-16.568 31.6-16.568 31.6-.113.361-.242.715-.38 1.064a16.353 16.353 0 0 1-13.972 10.329l-6.111.529a13.347 13.347 0 0 0-10.133 6.168l-.86 1.364a13.343 13.343 0 0 0 11.13 20.468l75.127.85 7.754-28.112 1.127-4.08.261-.954 2.765-10.017 24.066-2.317 85.142-8.195s-9.32-9.321-21.708-20.965z" opacity="1"/><path fill="#8BE5EE" d="m764.995 585.262 36.863-3.535 12.231 3.992M750.019 674.486c-6.186-1.578-8.382-8.404-8.309-14.213-2.269 5.848-6.931 10.749-12.911 10.097-5.979-.654-10.769-7.176-9.134-12.964-3.021 4.491-8.124 8.724-13.325 7.224-3.127-.903-5.413-3.8-6.219-6.954-.153-.596-.251-1.275-.326-1.982a16.353 16.353 0 0 1-13.973 10.329l-6.11.529a13.348 13.348 0 0 0-10.133 6.168l-.862 1.365a13.343 13.343 0 0 0 11.131 20.467l75.127.85 7.755-28.111c-2.274 4.677-7.552 8.511-12.711 7.195zM763.856 663.21l.262-.954-.23.106c.01.281-.013.565-.032.848z" opacity="1"/><path fill="#26C6DA" d="m814.09 585.719-12.231-3.991-36.865 3.535c-7.301 3.316-14.058 6.813-18.716 9.301-9.631 5.148-22.836 15.628-29.534 28.466-6.23 11.941-16.568 31.6-16.568 31.6-.113.361-.242.715-.38 1.064.074.707.172 1.385.324 1.982.807 3.153 3.094 6.051 6.221 6.953 5.201 1.5 10.303-2.732 13.323-7.223-1.635 5.788 3.157 12.311 9.137 12.964 5.979.653 10.641-4.25 12.91-10.097-.073 5.808 2.123 12.634 8.309 14.213 5.159 1.316 10.436-2.518 12.711-7.196l1.125-4.08c.018-.283.042-.567.032-.847l.231-.106 2.763-10.017 24.068-2.318 63.432-29.16c-12.45-11.704-27.997-25.752-40.292-35.043z" opacity="1"/><path fill="#47DAEA" d="M719.388 648.379a2.002 2.002 0 0 1-1.854-2.753l7.174-17.675a2 2 0 0 1 3.707 1.504l-7.174 17.675a2 2 0 0 1-1.853 1.249zM741.579 640.458a2 2 0 0 1-1.848-2.764l7.443-18.019a1.999 1.999 0 1 1 3.697 1.528l-7.442 18.018a2.002 2.002 0 0 1-1.85 1.237zM750.448 658.704a2.001 2.001 0 0 1-1.828-2.81l7.563-17.115a2 2 0 0 1 3.659 1.617l-7.564 17.116a2 2 0 0 1-1.83 1.192z" opacity="1"/><path fill="#1BC1DC" d="M692.138 695.414c-4.267 0-12.703-2.582-14.095-12.357-1.405-9.873 7.086-14.422 11.773-15.448a2.038 2.038 0 0 1 2.417 1.551 2.03 2.03 0 0 1-1.55 2.417c-.397.089-9.843 2.316-8.62 10.906 1.248 8.77 9.716 8.871 10.075 8.871a2.03 2.03 0 0 1 0 4.06zM712.232 695.414c-4.267 0-12.703-2.582-14.095-12.357-1.405-9.873 7.086-14.422 11.773-15.448a2.038 2.038 0 0 1 2.417 1.551 2.03 2.03 0 0 1-1.55 2.417c-.397.089-9.843 2.316-8.62 10.906 1.237 8.695 9.722 8.869 10.084 8.871 1.117.01 2.021.92 2.016 2.039a2.026 2.026 0 0 1-2.025 2.021z" opacity="1"/></g><g opacity="1" style="display:block"><path fill="#26C6DA" d="M803.536 552.428c-3.11-5.199-12.64-8.221-22.384-6.967-7.966 1.025-19.564 5.522-29.908 10.954-5.59 2.936-18.718 9.595-28.53 15.282-10.935 6.339-19.197 23.518-8.578 30.065 26.81 16.53 65.743-15.767 78.816-25.35 8.584-6.291 15.455-15.844 10.584-23.984z" opacity="1"/><path fill="#47DAEA" d="M764.57 563.756a2 2 0 0 1-1.04-3.712l13.932-8.407a1.998 1.998 0 0 1 2.744.68c.57.944.269 2.174-.678 2.744l-13.932 8.407a1.982 1.982 0 0 1-1.026.288z" opacity="1"/><path fill="#0097A7" d="M732.94 608.113a37.266 37.266 0 0 1-3.799-.185 1.501 1.501 0 0 1 .298-2.986c4.812.479 9.426-.048 13.705-1.57 13.396-4.766 22.901-12.04 22.996-12.112a1.5 1.5 0 1 1 1.834 2.374c-.4.309-9.955 7.63-23.825 12.564-3.556 1.266-7.313 1.905-11.209 1.915z" opacity="1"/></g><g opacity="1" style="display:block"><path fill="#26C6DA" d="M927.272 679.12c26.623-10.78 37.678-52.246 25.822-79.13-9.47-21.474-47.214-38.954-76.066-47.564-28.851-8.61-56.341-16.536-80.769-.236-17.055 11.38-38.386 46.9-29.124 72.072 10.14 27.554 37.796 48.463 60.416 55.105 27.77 8.153 73.438 10.394 99.721-.248z" opacity="1"/><path fill="#0097A7" d="M783.942 649.72c-.21 0-.425-.043-.629-.137-8.682-3.98-15.556-14.091-18.391-27.045-6.171-28.198 13.302-56.213 27.897-68.163a1.5 1.5 0 0 1 1.9 2.321c-14.022 11.482-32.75 38.321-26.868 65.2 2.034 9.295 7.494 20.733 16.713 24.96a1.5 1.5 0 0 1-.622 2.864z" opacity="1"/><path fill="#47DAEA" d="M803.67 578.17a1.998 1.998 0 0 1-1.697-3.064l6.672-10.62a2 2 0 0 1 3.388 2.127l-6.672 10.621a1.998 1.998 0 0 1-1.69.936zM823.254 597.657a2 2 0 0 1-1.795-2.89l6.664-13.411a2.002 2.002 0 0 1 2.682-.903 2.002 2.002 0 0 1 .9 2.683l-6.664 13.411a1.998 1.998 0 0 1-1.787 1.11zM846.835 607.25a2 2 0 0 1-1.797-2.885l7.66-15.53a2.001 2.001 0 0 1 3.588 1.77l-7.66 15.529a2.003 2.003 0 0 1-1.79 1.115zM879.1 609.68a2 2 0 0 1-1.886-2.684l4.435-12.174a2 2 0 0 1 3.76 1.37l-4.435 12.173a2.002 2.002 0 0 1-1.875 1.316z" opacity="1"/></g><g opacity="1" style="display:block"><path fill="#26C6DA" d="M940.161 630.648a33.768 33.768 0 0 0-6.148-7.915 33.623 33.623 0 0 0-11.341-7.135 33.523 33.523 0 0 0-12.023-2.142l-15.581.085-76.219 9.458h-.002l-.245.03s-5.647.796-13.219 2.627l-.325.079-.805.199-.365.091c-.291.073-.583.148-.878.225-.092.023-.182.045-.275.07-.386.1-.774.203-1.167.308l-.229.062c-.315.085-.631.172-.949.26l-.387.108c-.286.08-.573.161-.862.244l-.367.106c-.371.107-.743.217-1.117.329l-.102.03a89.43 89.43 0 0 0-1.224.374l-.351.11a90.98 90.98 0 0 0-1.308.418 98.757 98.757 0 0 0-1.245.413c-.414.139-.828.281-1.242.426l-.218.078c-.34.121-.681.243-1.022.367l-.395.145c-.294.109-.587.218-.88.329l-.388.148c-.352.135-.704.273-1.055.413l-.178.071c-.407.163-.811.329-1.213.497l-.336.144a86.68 86.68 0 0 0-.882.379l-.396.174c-.294.13-.587.263-.878.397l-.321.147a70.43 70.43 0 0 0-1.174.558l-.153.076a65.267 65.267 0 0 0-1.35.684 42.34 42.34 0 0 0-.793.421l-.362.196c-.297.162-.59.327-.881.494-.071.042-.144.082-.216.124-.358.207-.709.418-1.057.631l-.269.168a47.797 47.797 0 0 0-1.102.71c-.24.16-.477.321-.71.484-.098.068-.196.135-.292.203-.322.228-.639.458-.947.693l-.077.06c-.282.215-.558.434-.83.655l-.27.225a31.344 31.344 0 0 0-1.519 1.36c-.058.057-.121.113-.178.171-.26.255-.511.513-.755.775l-.174.193a21.531 21.531 0 0 0-1.213 1.463c-.063.084-.129.169-.19.254-.203.278-.398.559-.581.843-2.107 3.277-4.98 11.188-8.032 20.907-.508 1.62-1.022 3.29-1.538 4.998a627.198 627.198 0 0 0-1.552 5.22 948.99 948.99 0 0 0-5.297 18.891 1548.543 1548.543 0 0 0-5.634 21.473c-.009.035-.022.068-.03.104-.1.38-.213.755-.336 1.125-.133.391-.279.777-.435 1.157a17.72 17.72 0 0 1-14.91 10.899l-4.244.903a15.207 15.207 0 0 0-9.263 23.644l.305.431a15.204 15.204 0 0 0 11.135 6.383l71.086-4.507a12.647 12.647 0 0 0 10.375-10.929l10.834-58.839h72.788a33.6 33.6 0 0 0 10.44-1.663l11.1-3.629 5.549-1.814a33.601 33.601 0 0 0 23.105-30.02 33.41 33.41 0 0 0-4.215-18.324z" opacity="1"/><path fill="#8BE5EE" d="M818.603 623.029s-39.627 5.582-49.674 21.21c-5.618 8.739-16.684 50.43-22.053 71.488a17.724 17.724 0 0 1-15.711 13.285l-4.244.904a15.205 15.205 0 0 0-9.261 23.643l.303.431a15.204 15.204 0 0 0 11.135 6.383l71.087-4.506a12.653 12.653 0 0 0 10.376-10.929l10.833-58.84h72.787c3.546 0 7.069-.56 10.441-1.662l16.65-5.443a33.6 33.6 0 0 0 23.104-30.02c1.106-19.351-14.345-35.623-33.727-35.517l-15.58.086-76.466 9.487z" opacity="1"/><path fill="#1BC1DC" d="M740.713 759.745c-4.267 0-12.703-2.583-14.095-12.358-1.405-9.872 7.086-14.421 11.773-15.447a2.03 2.03 0 0 1 .867 3.965c-.397.09-9.843 2.32-8.62 10.909 1.237 8.696 9.722 8.869 10.084 8.871 1.117.01 2.021.92 2.016 2.039a2.026 2.026 0 0 1-2.025 2.021zM760.807 758.628c-4.267 0-12.704-2.582-14.096-12.357-1.404-9.872 7.087-14.42 11.774-15.446a2.029 2.029 0 1 1 .867 3.965c-.397.09-9.842 2.317-8.62 10.907 1.237 8.695 9.721 8.869 10.083 8.871 1.117.01 2.021.92 2.016 2.039a2.025 2.025 0 0 1-2.024 2.021z" opacity="1"/><path fill="#26C6DA" d="m910.649 613.456-15.581.085-76.219 9.458-12.386 2.399c-12.52 2.94-31.097 8.829-37.534 18.84-5.618 8.739-16.685 50.431-22.052 71.489a17.905 17.905 0 0 1-.805 2.398c.307 1.812.864 3.518 1.792 4.952 2.611 4.036 7.194 6.652 12.083 5.615 4.888-1.036 10.408-6.137 11.223-11.067-.052 7.431-.007 13.097 7.365 14.207 10.015 1.509 12.368-9.56 13.789-12.613.257 3.155.529 6.367 1.721 9.299 1.193 2.931 3.931 5.464 6.98 6.313 3.885 1.08 8.658-.854 11.191-3.99.552-.684.977-1.415 1.34-2.173l7.838-42.569h72.787c3.546 0 7.07-.562 10.441-1.664l16.65-5.443a33.602 33.602 0 0 0 23.105-30.019c1.105-19.352-14.346-35.622-33.728-35.517z" opacity="1"/><path fill="#47DAEA" d="M799.109 716.516a1.997 1.997 0 0 1-1.945-2.471l4.186-17.256a2 2 0 0 1 3.887.944l-4.187 17.256a1.998 1.998 0 0 1-1.941 1.527zM785.714 696.702a1.997 1.997 0 0 1-1.945-2.472l4.186-17.256a2 2 0 0 1 3.887.944l-4.187 17.256a1.998 1.998 0 0 1-1.941 1.528zM782.531 663.112a2 2 0 0 1-1.956-2.425l1.135-5.222a13.366 13.366 0 0 1 6.82-8.994l4.394-2.326a2 2 0 0 1 1.871 3.535l-4.394 2.327a9.377 9.377 0 0 0-4.783 6.307l-1.135 5.223a2 2 0 0 1-1.952 1.575zM762.83 714.283a1.997 1.997 0 0 1-1.945-2.472l4.186-17.255a2 2 0 0 1 3.887.944l-4.187 17.255a1.998 1.998 0 0 1-1.941 1.528zM828.408 677.725a2 2 0 0 1-.085-3.998l19.256-.837c1.094-.033 2.037.808 2.085 1.911a2 2 0 0 1-1.911 2.085l-19.256.837-.089.002zM810.124 667.44a2 2 0 0 1-1.479-3.344l2.407-2.651c2.816-3.101 6.666-5 10.841-5.348l3.242-.27a1.993 1.993 0 0 1 2.159 1.827 2 2 0 0 1-1.826 2.159l-3.242.271a12.453 12.453 0 0 0-8.213 4.05l-2.409 2.652a1.99 1.99 0 0 1-1.48.654zM907.976 662.138a2 2 0 0 1-.3-3.976l19.051-2.921a2 2 0 1 1 .605 3.953l-19.05 2.922a2.11 2.11 0 0 1-.306.022zM886.767 678.557a2 2 0 0 1-.301-3.976l19.051-2.922a2 2 0 1 1 .607 3.953l-19.05 2.923a2.134 2.134 0 0 1-.307.022z" opacity="1"/><path fill="#0097A7" d="M752.744 696.9a1.501 1.501 0 0 1-1.436-1.937c.782-2.558 1.572-5.179 2.369-7.822 5.509-18.273 11.207-37.169 16.831-44.901 5.458-7.506 15.215-13.274 29.001-17.143 10.162-2.852 18.623-3.536 18.978-3.563.813-.076 1.546.553 1.61 1.378a1.498 1.498 0 0 1-1.376 1.612c-.336.026-33.673 2.823-45.788 19.48-5.324 7.322-10.947 25.969-16.383 44.002-.798 2.648-1.59 5.272-2.372 7.833a1.5 1.5 0 0 1-1.434 1.061z" opacity="1"/></g><path fill="#8BE5EE" d="M-5.985 2.128c.586-3.186 1.44-12.146 7.016-11.87 5.772.285 5.488 6.058 5.564 8.848.076 2.79-1.288 8.724-1.288 8.724l-12.11 2.188s.231-4.704.818-7.89z" opacity="1" style="display:block" transform="rotate(-.143 216976.384 -292720.816)"/><g clip-path="url(#aY)" opacity="1" style="display:block" transform="translate(0 5)"><path fill="#8BE5EE" d="M.026-24.413c-66.741 0-121.652 11.53-128.42 26.32 21.872 13.261 71.09 22.506 128.309 22.506 57.369 0 106.693-9.294 128.479-22.611C121.414-12.937 66.609-24.413.026-24.413z" opacity="1" style="display:block" transform="translate(425.585 811.099)"/><path fill="url(#aZ)" d="M130.833-2.533a50.379 50.379 0 0 0-3-1.917c-7.826-4.641-19.015-8.778-32.722-12.189-.988-.246-1.986-.49-3-.728a264.494 264.494 0 0 0-9.278-1.999c-.99-.196-1.99-.388-3-.577C57.166-24.183 29.66-26.669 0-26.669c-15.32 0-30.063.665-43.865 1.89-1.006.089-2.005.183-3 .278a420.253 420.253 0 0 0-11.162 1.213c-22.834 2.803-42.396 7.209-56.721 12.685a118.68 118.68 0 0 0-3 1.197c-14.325 5.944-22.654 13.039-22.654 20.659 0 5.49 4.324 10.706 12.093 15.416C-121.541 11.879-66.629.348.112.348c66.583 0 121.388 11.475 128.367 26.215 7.662-4.683 11.923-9.861 11.923-15.31 0-4.863-3.393-9.513-9.569-13.786z" opacity="1" style="display:block" transform="translate(425.5 786.338)"/><g opacity="1" style="display:block"><path fill="#ADF2F2" d="M506.832 791.224a1.5 1.5 0 0 0 1.5-1.5v-22.753c-.99-.196-1.99-.388-3-.577v23.33a1.5 1.5 0 0 0 1.5 1.5zM368.972 781.945a1.5 1.5 0 0 0 1.5-1.5v-17.752c-1.006.116-2.006.234-3 .356v17.396a1.5 1.5 0 0 0 1.5 1.5zM309.251 798.689a1.5 1.5 0 0 0 1.5-1.5v-21.454c-1.028.393-2.026.792-3 1.196v20.258a1.5 1.5 0 0 0 1.5 1.5zM380.134 774.689a1.5 1.5 0 0 0 1.5-1.5v-11.63c-1.005.089-2.005.181-3 .276v11.354a1.5 1.5 0 0 0 1.5 1.5zM519.11 786.968a1.5 1.5 0 0 0 1.5-1.5v-15.77c-.988-.246-1.986-.489-3-.728v16.498a1.5 1.5 0 0 0 1.5 1.5zM554.832 804.27a1.5 1.5 0 0 0 1.5-1.5v-18.966a50.888 50.888 0 0 0-3-1.916v20.882a1.5 1.5 0 0 0 1.5 1.5z" opacity="1"/></g></g><path fill="none" stroke="#0097A7" stroke-width="3" d="m-243.5-116-9 498" opacity="1" style="display:block" transform="rotate(-.381 63606.21 -105400.799)"/><path fill="none" stroke="#0097A7" stroke-width="3" d="m53.085 120.753-300.2-296.819" opacity="1" style="display:block" transform="rotate(-2.142 13143.02 -18771.656)"/><path fill="none" stroke="#F7CB4D" stroke-linecap="round" stroke-width="15" d="M189.5 237 4.581 70.018-243.5-154" opacity="1" style="display:block" transform="rotate(-1.139 23363.463 -35282.974)"/><path fill="#F09300" d="M0-19.914c11.018 0 19.963 8.923 19.963 19.914 0 10.99-8.945 19.914-19.963 19.914S-19.963 10.991-19.963 0c0-10.99 8.945-19.914 19.963-19.914z" opacity="1" style="display:block" transform="matrix(1.23735 -.02467 .02492 1.24975 787.118 590.724)"/><g opacity="1" style="display:block"><path fill="#8BE5EE" d="M744.786 547.409c0-.007-.004-.014-.006-.021a29.373 29.373 0 0 0-.299-1.202l-.047-.168a26.808 26.808 0 0 0-.303-1.017l-.028-.079c-.118-.359-.24-.707-.37-1.044l-.003-.004a18.7 18.7 0 0 0-.433-1.028c-.776-1.692-1.75-3.078-3-4.176a10.528 10.528 0 0 0-.943-.731 11.643 11.643 0 0 0-1.293-.79h-.004c-.368-.19-.758-.362-1.162-.522a15.65 15.65 0 0 0-1.592-.542c-2.03-.565-4.23.108-6.188 1.168-3.263 1.768-5.85 4.616-5.85 4.616.061-2.365-.131-5.896-1.368-8.799a11.034 11.034 0 0 0-.453-.942c-.984-1.827-2.471-3.288-4.692-3.85a4.527 4.527 0 0 0-.813-.13c-1.328-.083-2.538.48-3.598 1.532-.212.21-.418.441-.618.69a11.71 11.71 0 0 0-1.123 1.704c-.174.318-.342.651-.503 1-.963 2.09-1.675 4.71-2.084 7.597-.409 2.884-.389 7.123-.293 10.28a138.05 138.05 0 0 0 .143 3.355l.027.488.025.414 34.028 16.382c1.718-5.546 2.978-12.42 3.212-17.877.022-.496.034-.98.038-1.451.017-1.883-.11-3.544-.407-4.853z" opacity="1"/><path fill="#8BE5EE" d="M744.786 547.409c0-.007-.004-.014-.006-.021a29.373 29.373 0 0 0-.299-1.202l-.047-.168a26.808 26.808 0 0 0-.303-1.017l-.028-.079c-.118-.359-.24-.707-.37-1.044l-.003-.004a18.7 18.7 0 0 0-.433-1.028l-10.355 8.773a2.554 2.554 0 0 1-1.65.607 2.564 2.564 0 0 1-1.664-4.519l10.668-9.037a10.528 10.528 0 0 0-.942-.731 11.643 11.643 0 0 0-1.293-.79h-.004c-.368-.19-.758-.362-1.162-.522a15.65 15.65 0 0 0-1.592-.542c-2.03-.565-4.23.108-6.188 1.168-3.263 1.768-5.85 4.616-5.85 4.616.061-2.365-.131-5.896-1.368-8.799a11.034 11.034 0 0 0-.453-.942c-.984-1.827-2.471-3.288-4.692-3.85a4.527 4.527 0 0 0-.813-.13c-1.328-.083-2.538.48-3.598 1.532-.212.21-.418.441-.618.69a11.71 11.71 0 0 0-1.123 1.704c-.174.318-.342.651-.503 1-.963 2.09-1.675 4.71-2.084 7.597-.409 2.884-.389 7.123-.293 10.28a138.05 138.05 0 0 0 .143 3.355l.027.488.025.414 34.028 16.382c1.718-5.546 2.978-12.42 3.212-17.877.022-.496.034-.98.038-1.451.017-1.883-.11-3.544-.407-4.853z" opacity="1"/><path fill="#0097A7" d="M729.33 551.32c.508.6 1.233.909 1.963.907.584-.001 1.17-.2 1.65-.607l10.355-8.774c-.776-1.692-1.753-3.078-3.002-4.177l-10.667 9.038a2.564 2.564 0 0 0-.3 3.613z" opacity="1"/><path fill="#8BE5EE" d="M744.786 547.414c0-.007-.004-.014-.006-.021a29.373 29.373 0 0 0-.299-1.202c-.015-.058-.031-.11-.047-.169a26.751 26.751 0 0 0-.303-1.016l-.028-.08c-.118-.358-.24-.706-.37-1.043l-.003-.005a18.996 18.996 0 0 0-.433-1.027c-.777-1.692-1.75-3.08-3-4.177-.297-.262-.616-.5-.943-.73a11.679 11.679 0 0 0-1.295-.79h-.002a12.666 12.666 0 0 0-1.162-.522 15.65 15.65 0 0 0-1.592-.542c-2.03-.565-4.23.108-6.188 1.168-3.263 1.768-5.85 4.616-5.85 4.616.061-2.365-.131-5.896-1.368-8.799a11.344 11.344 0 0 0-.453-.942c-.984-1.827-2.471-3.288-4.692-3.85a4.527 4.527 0 0 0-.813-.13c-1.328-.083-2.538.478-3.598 1.532-.212.21-.418.441-.618.69a11.71 11.71 0 0 0-1.123 1.704c-.174.317-.341.651-.503 1-.962 2.09-1.675 4.71-2.084 7.597-.409 2.883-.39 7.122-.293 10.28a137.774 137.774 0 0 0 .143 3.356l.027.486.025.415 34.028 16.382c1.718-5.546 2.978-12.42 3.212-17.877.022-.496.034-.98.038-1.451.017-1.883-.11-3.544-.407-4.853z" opacity="1"/><path fill="#8BE5EE" d="M744.786 547.414c0-.007-.004-.014-.006-.021a29.373 29.373 0 0 0-.299-1.202c-.015-.058-.031-.11-.047-.169a26.751 26.751 0 0 0-.303-1.016l-.028-.08c-.118-.358-.24-.706-.37-1.043l-.003-.005a18.996 18.996 0 0 0-.433-1.027l-10.355 8.773a2.554 2.554 0 0 1-1.65.607 2.564 2.564 0 0 1-1.664-4.519l10.668-9.038c-.296-.262-.615-.5-.942-.73a11.679 11.679 0 0 0-1.295-.79h-.002a12.666 12.666 0 0 0-1.162-.522 15.65 15.65 0 0 0-1.592-.542c-2.03-.565-4.23.108-6.188 1.168-3.263 1.768-5.85 4.616-5.85 4.616v-.001.001c.061-2.365-.131-5.896-1.368-8.799a11.344 11.344 0 0 0-.453-.942c-.984-1.827-2.471-3.288-4.692-3.85a4.527 4.527 0 0 0-.813-.13c-1.328-.083-2.538.478-3.598 1.532-.212.21-.418.441-.618.69a11.71 11.71 0 0 0-1.123 1.704c-.174.317-.341.651-.503 1-.962 2.09-1.675 4.71-2.084 7.597-.409 2.883-.39 7.122-.293 10.28a137.774 137.774 0 0 0 .143 3.356l.027.486.025.415 34.028 16.382c1.718-5.546 2.978-12.42 3.212-17.877.022-.496.034-.98.038-1.451.017-1.883-.11-3.544-.407-4.853z" opacity="1"/><path fill="#0097A7" d="M729.33 551.325c.508.6 1.233.909 1.963.907.584-.001 1.17-.2 1.65-.607l10.355-8.774c-.776-1.692-1.753-3.08-3.002-4.177l-10.667 9.038a2.564 2.564 0 0 0-.3 3.613z" opacity="1"/><path fill="#26C6DA" d="M707.913 555.251s-5.968 14.446-5.66 28.201c.308 13.81 18.955 28.752 35.151 15.849 5.09-4.057 3.806-23.984 3.806-23.984l.361-4.093-33.658-15.973z" opacity="1"/><path fill="#47DAEA" d="M712.308 586.598a2 2 0 0 1-2.001-2.153l1.351-17.585a2 2 0 0 1 3.99.307l-1.352 17.584a2 2 0 0 1-1.988 1.847zM724.056 597.453a2 2 0 0 1-1.995-2.23l1.642-14.235a2.005 2.005 0 0 1 2.213-1.759 2 2 0 0 1 1.76 2.216l-1.64 14.237a2 2 0 0 1-1.98 1.771z" opacity="1"/></g><g opacity=".25" style="display:block"><path fill="#ADF2F2" d="M1064.127 849.327H945.563a1.5 1.5 0 1 1 0-3h118.564a1.5 1.5 0 1 1 0 3z" opacity="1"/></g><path fill="#0097A7" d="M66.872-56.378c1.462-1.946 2.028-3.191 2.028-3.191H-68.9l29.62 119.127h80.491L68.9-59.569s-.566 1.245-2.028 3.191z" opacity="1" style="display:block" transform="translate(976.616 789.558)"/><g opacity="1" style="display:block"><path fill="#0097A7" d="M1031.335 793.948c.268-.396.543-.783.799-1.192a1.514 1.514 0 0 1 2.61 1.534c7.115-11.407 9.264-26.836 6.107-44.226l-1.926 8.284c1.265 14.079-1.341 26.39-7.59 35.6zM1030.32 795.372l-.004.014c.165-.221.337-.434.498-.66-.158.222-.332.429-.494.646zM1033.805 795.711c-.179.263-.349.536-.532.793.184-.258.353-.53.532-.793z" opacity="1"/><path fill="#00ACC1" d="M917.65 746.452a1.517 1.517 0 0 1-.921 1.938l-3.342 1.187c10.026 17.062 23.655 31.825 38.375 42.515h79.319l-.765 3.295v-.001l.002-.014 8.606-37.023 1.926-8.284 4.666-20.076s-11.833 26.025-66.976 26.025-70.824-26.025-70.824-26.025l4.199 16.891 3.797-1.349a1.516 1.516 0 0 1 1.938.921zM914.428 756.982l8.73 35.11h23.608c-12.125-9.38-23.357-21.406-32.338-35.11zM1017.828 849.115l11.02-47.416-11.02 47.416z" opacity="1"/><path fill="#4DD0E1" d="m999.307 813.223-.347-.001c-16.649-.111-35.282-8.047-52.193-21.13h-23.609l14.178 57.024h80.492l11.022-47.417c-7.538 7.484-17.733 11.524-29.543 11.524z" opacity="1"/><path fill="#4DD0E1" d="m1030.316 795.387.766-3.294h-79.32c15.499 11.255 32.21 17.995 47.219 18.095.108-.004.216.001.323.001 12.994 0 23.872-5.231 31.012-14.802z" opacity="1"/><path fill="#0097A7" d="M914.428 756.983c8.981 13.704 20.214 25.729 32.339 35.109 16.911 13.083 35.544 21.019 52.193 21.13a1.517 1.517 0 0 1 .01-3.034h.011c-15.009-.1-31.72-6.84-47.219-18.096-14.72-10.69-28.348-25.453-38.374-42.514l3.341-1.188a1.517 1.517 0 0 0-1.017-2.859l-3.796 1.349-2.969 1.056.897 1.574a141.167 141.167 0 0 0 4.584 7.473z" opacity="1"/><path fill="#0097A7" d="M1034.225 792.272a1.519 1.519 0 0 0-2.091.483c-.256.41-.531.798-.799 1.194-.175.258-.341.526-.521.778-.161.226-.333.438-.498.658v.001c-7.139 9.571-18.017 14.802-31.011 14.802-.108 0-.215-.005-.324-.001h-.01a1.517 1.517 0 0 0-.011 3.034l.348.002c11.809 0 22.004-4.04 29.541-11.524a40.137 40.137 0 0 0 4.425-5.194c.183-.257.352-.53.531-.793.303-.447.613-.887.902-1.349.015-.024.023-.049.037-.074a1.514 1.514 0 0 0-.519-2.017z" opacity="1"/></g><g opacity="1" style="display:block"><path fill="#47DAEA" d="m944.884 623.915-.022-.014c13.402-19.24 5.73-31.456-4.12-36.35-8.426-4.187-20.549 1.439-28.389 7.512-.006-.007-.009-.015-.015-.022a1.5 1.5 0 0 0-2.111-.201c-14.06 11.607-28.108 17.031-44.215 17.071-26.09.065-48.78-10.07-59.69-20.142a1.498 1.498 0 0 0-2.39 1.699l-.006.007c-.331-1.303-1.761-6.03-6.269-11.894-4.852-6.314-13.925-4.447-12.875 1.253.344 1.864 1.87 3.754 3.016 4.95-2.627-2.363-8.758-7.158-14.527-6.447-.96.118-1.91.382-2.832.842-.329.164-.643.34-.947.525a12.614 12.614 0 0 0-3.531 3.184c-1.08 1.422-1.864 3.05-2.385 4.796-1.755 5.891-.553 13.107 2.117 18.14 5.192 9.793 12.362 14.558 14.4 15.771a1.498 1.498 0 0 0-.688 2.675c4.389 3.347 9.252 6.422 14.4 9.678l.953.604c12.194 7.716 44.785 19.1 76.017 19.022 33.146-.083 60.275-11.223 74.433-30.563a1.498 1.498 0 0 0-.324-2.096z" opacity="1"/><path fill="#8BE5EE" d="M803.932 593.469v-.001l-.006.007.006-.006zM781.38 623.984l-.52.703.017.007 1.845-2.499-1.342 1.789z" opacity="1"/><path fill="#26C6DA" d="M912.137 597.153c-14.624 12.073-29.278 17.716-46.117 17.757-28.746.072-51.222-11.233-61.734-20.937a1.477 1.477 0 0 1-.354-.505l-.005.007c.058.233.088.368.088.368l-21.293 28.352-1.844 2.5c.12.048.237.106.344.19 4.286 3.266 9.094 6.307 14.187 9.527l.955.604c12.364 7.826 45.101 18.63 74.403 18.557 32.182-.08 58.433-10.772 72.022-29.334a1.498 1.498 0 0 1 2.073-.338c13.402-19.24 5.732-31.456-4.118-36.35-8.427-4.187-20.55 1.439-28.39 7.511a1.5 1.5 0 0 1-.217 2.09zm-108.099 13.364a2 2 0 0 1 2.635-1.03l16.925 7.41a2 2 0 1 1-1.603 3.664l-16.927-7.41a2 2 0 0 1-1.03-2.634zm30.129 32.113a2 2 0 0 1-2.56 1.2l-20.275-7.33a1.998 1.998 0 0 1-1.2-2.56 1.998 1.998 0 0 1 2.56-1.2l20.275 7.33a1.998 1.998 0 0 1 1.2 2.56zm29.15-8.288a2.24 2.24 0 0 1-.14-.004l-21.513-1.439a1.999 1.999 0 1 1 .269-3.99l21.51 1.438a2 2 0 0 1-.125 3.995zm38.124 7.464-21.267 3.531a2 2 0 0 1-.657-3.945l21.27-3.532a2 2 0 1 1 .654 3.946zm2.684-23.817-20.285 7.3a2 2 0 1 1-1.355-3.764l20.286-7.299a2 2 0 1 1 1.354 3.763zm12.11 5.272 16.902-13.384a2 2 0 1 1 2.482 3.135l-16.901 13.386a1.99 1.99 0 0 1-1.236.43 2 2 0 0 1-1.247-3.568z" opacity="1"/><path fill="#8BE5EE" d="m780.853 624.684.526-.7 1.343-1.788 21.292-28.352s-.03-.135-.09-.368c-.33-1.303-1.76-6.03-6.268-11.895-4.852-6.313-13.925-4.446-12.875 1.254.344 1.864 1.87 3.753 3.016 4.95-2.627-2.363-8.758-7.16-14.527-6.448l5.014 10.603a2.002 2.002 0 0 1-1.803 2.858 2 2 0 0 1-1.814-1.146l-5.176-10.947a12.614 12.614 0 0 0-3.531 3.184l5.32 13.25a2 2 0 1 1-3.713 1.491l-3.99-9.946c-1.756 5.89-.554 13.108 2.115 18.14 5.192 9.793 12.363 14.558 14.401 15.771.254-.038.515-.006.76.09z" opacity="1"/><path fill="#0097A7" d="M804.286 593.974c10.512 9.703 32.988 21.009 61.734 20.937 16.84-.041 31.492-5.684 46.117-17.757a1.5 1.5 0 0 0 .216-2.09c-.005-.008-.008-.016-.014-.023a1.503 1.503 0 0 0-2.112-.201c-14.059 11.608-28.108 17.031-44.214 17.071-26.09.065-48.78-10.07-59.691-20.141a1.498 1.498 0 0 0-2.391 1.698c.081.186.197.36.355.506zM870.775 656.573c33.146-.083 60.276-11.221 74.434-30.562a1.5 1.5 0 0 0-.325-2.096l-.022-.013a1.498 1.498 0 0 0-2.073.338c-13.59 18.562-39.84 29.253-72.022 29.333-29.302.073-62.039-10.73-74.403-18.556l-.955-.605c-5.093-3.22-9.9-6.26-14.186-9.527a1.443 1.443 0 0 0-.345-.19l-.018-.007-.007-.004a1.49 1.49 0 0 0-1.732.484 1.5 1.5 0 0 0 .284 2.103c4.389 3.346 9.252 6.42 14.4 9.678l.953.603c12.194 7.716 44.786 19.098 76.017 19.02zM776.483 594.797a2.001 2.001 0 0 0 1.803-2.855l-5.015-10.605c-.96.118-1.91.382-2.832.842-.329.164-.643.34-.947.525l5.176 10.947a2.001 2.001 0 0 0 1.815 1.146zM769.43 601.883a1.999 1.999 0 0 0 1.85-2.746l-5.32-13.249c-1.08 1.422-1.863 3.05-2.383 4.796l3.992 9.945a1.998 1.998 0 0 0 1.862 1.254z" opacity="1"/><path fill="#47DAEA" d="M822.8 620.73a2 2 0 0 0 .8-3.833l-16.928-7.41a2 2 0 0 0-2.634 1.03 2 2 0 0 0 1.03 2.635l16.926 7.409c.263.114.537.17.807.169zM832.967 640.07l-20.276-7.33a1.997 1.997 0 0 0-2.56 1.2 2 2 0 0 0 1.2 2.561l20.276 7.33a2.001 2.001 0 0 0 1.36-3.761zM863.445 630.347l-21.513-1.438a2.007 2.007 0 0 0-2.13 1.86 2 2 0 0 0 1.863 2.131l21.512 1.439c.048.002.093.004.14.004a2 2 0 0 0 .128-3.996zM902.77 614.226l-20.286 7.3a2 2 0 0 0 1.355 3.765l20.286-7.3a2 2 0 0 0-1.355-3.765zM900.785 637.86l-21.268 3.532a2 2 0 0 0 .656 3.946l21.268-3.532a1.999 1.999 0 1 0-.656-3.946zM917.482 626.829c.434-.001.87-.142 1.235-.431l16.902-13.385a2.002 2.002 0 0 0 .327-2.811 2.001 2.001 0 0 0-2.81-.325l-16.9 13.385a1.999 1.999 0 0 0 1.246 3.567z" opacity="1"/></g><g opacity="1" style="display:block"><path fill="#00ACC1" d="M835.677 356.433c1.523-5.673 3.97-11.78 5.146-15.751.541-1.825-1.486-3.33-3.073-2.278-4.732 3.137-12.064 8.842-17.15 16.734a38.381 38.381 0 0 0-3.465 6.727c-.183.465-.374.925-.537 1.401-1.625 4.729-2.342 9.03-2.532 12.783a39.944 39.944 0 0 0 .264 7.128c.366 2.856.984 5.106 1.502 6.616a6.264 6.264 0 0 0 3.026 3.542c2.39 1.24 6.321 3.625 11.934 1.841 5.306-1.685 7.543-4.56 9.397-7.414 1.185-1.822 1.62-4.321.367-6.097-1.032-1.464-1.99-2.683-2.833-3.976-1.154-1.772-2.088-3.686-2.684-6.561-.346-1.67-.578-3.662-.672-6.144a16.02 16.02 0 0 1 .035-1.634c.132-2.086.616-4.458 1.275-6.917z" opacity="1"/><path fill="#00ACC1" d="M840.823 340.682c.541-1.825-1.488-3.33-3.074-2.279-4.732 3.137-12.063 8.842-17.148 16.734l15.075 1.296c1.523-5.673 3.97-11.78 5.147-15.751zM834.367 364.983a16.01 16.01 0 0 1 .034-1.634l-17.266-1.485c-.183.465-.373.926-.537 1.402-1.625 4.728-2.342 9.029-2.533 12.782l20.974-4.92c-.346-1.67-.577-3.664-.672-6.145zM837.723 377.688l-23.394 5.488c.366 2.857.984 5.106 1.503 6.616a6.264 6.264 0 0 0 3.026 3.542c2.39 1.24 6.321 3.625 11.933 1.841 5.307-1.685 7.544-4.561 9.397-7.414 1.185-1.822 1.62-4.321.368-6.097-1.032-1.464-1.99-2.683-2.833-3.976z" opacity="1"/><path fill="#0097A7" d="m835.677 356.432-15.077-1.295a38.382 38.382 0 0 0-3.466 6.727l17.267 1.485c.132-2.086.617-4.458 1.276-6.917zM835.039 371.128l-20.974 4.921a39.85 39.85 0 0 0 .264 7.128l23.393-5.488c-1.154-1.772-2.087-3.686-2.683-6.561z" opacity="1"/><path fill="#26C6DA" d="M919.877 342.806s-19.535 25.451-47.321 24.352c-34.72-1.374-63.306-2.979-91.188 27.31-34.718 37.716-32.078 86.03-20.625 110.364 14.03 29.81 40.097 53.697 83.85 68.739 41.588 14.297 92.14 18.344 124.292-7.257 28.76-22.899 53.684-84.332 31.26-128.114-15.684-30.624-54.949-38.456-68.357-54.986-13.924-17.166-11.911-40.408-11.911-40.408z" opacity="1"/><path fill="#00ACC1" d="M998.08 393.368c-.539-1.827-3.059-1.977-3.819-.231-1.651 3.798-3.703 10.048-6.184 15.373-1.074 2.307-2.23 4.435-3.47 6.117-.335.456-.675.89-1.023 1.274-1.668 1.84-3.128 3.218-4.467 4.275-2.304 1.819-4.25 2.683-6.273 3.3-1.476.447-2.994.765-4.725 1.222-2.101.556-3.375 2.75-3.64 4.906-.414 3.378-.55 7.018 2.431 11.72 3.153 4.975 7.698 5.676 10.326 6.264a6.268 6.268 0 0 0 4.594-.77c1.368-.822 3.287-2.147 5.403-4.099a39.994 39.994 0 0 0 4.785-5.29c2.267-2.998 4.483-6.753 6.279-11.419.18-.47.33-.945.49-1.42a38.294 38.294 0 0 0 1.67-7.38c1.178-9.315-.769-18.398-2.376-23.842z" opacity="1"/><path fill="#00ACC1" d="M998.08 393.368c-.539-1.827-3.06-1.977-3.82-.231-1.651 3.798-3.702 10.048-6.183 15.373l12.38 8.7c1.177-9.315-.769-18.398-2.376-23.842zM968.118 424.698c-2.1.557-3.375 2.75-3.64 4.906-.414 3.378-.55 7.02 2.431 11.722 3.153 4.973 7.699 5.674 10.326 6.262a6.262 6.262 0 0 0 4.594-.77c1.369-.821 3.288-2.147 5.404-4.099l-14.389-19.244c-1.477.448-2.995.766-4.726 1.223zM984.607 414.627c-.335.456-.675.89-1.023 1.274-1.668 1.84-3.128 3.219-4.466 4.276l12.9 17.253c2.267-2.998 4.483-6.754 6.279-11.42.18-.47.33-.944.49-1.417l-14.18-9.966z" opacity="1"/><path fill="#0097A7" d="m1000.458 417.21-12.381-8.7c-1.075 2.308-2.231 4.436-3.47 6.118l14.18 9.964a38.394 38.394 0 0 0 1.671-7.382zM972.844 423.475l14.39 19.244a39.979 39.979 0 0 0 4.783-5.29l-12.9-17.253c-2.304 1.82-4.25 2.683-6.273 3.3z" opacity="1"/><path fill="#47DAEA" d="M990.115 490.49a2 2 0 0 1-2.043-2.278l3.141-22.275a1.993 1.993 0 0 1 2.26-1.7 2.001 2.001 0 0 1 1.701 2.26l-3.142 22.274a1.999 1.999 0 0 1-1.917 1.719zM971.176 541.95a1.999 1.999 0 0 1-1.82-2.946l11.585-21.558a2 2 0 1 1 3.525 1.894l-11.587 21.557a2.001 2.001 0 0 1-1.703 1.053zM931.141 574.15a1.999 1.999 0 0 1-1.451-3.436l13.076-12.629a2.003 2.003 0 0 1 2.829.05 2.002 2.002 0 0 1-.05 2.828l-13.076 12.628c-.372.36-.849.545-1.328.56zM815.413 387.348a2 2 0 0 1-.952-3.79l16.018-7.96a2 2 0 1 1 1.78 3.583l-16.018 7.96a2 2 0 0 1-.828.207zM777.629 425.277a2.002 2.002 0 0 1-1.811-2.967l10.516-19.036a2.001 2.001 0 0 1 3.503 1.936l-10.517 19.035a2.001 2.001 0 0 1-1.691 1.032zM950.98 464.92a2 2 0 0 1-2.048-2.245l2.566-20.791a2 2 0 1 1 3.97.49l-2.566 20.791a2 2 0 0 1-1.921 1.754zM958.73 505.468a2 2 0 0 1-1.922-2.73l7.44-18.941a1.997 1.997 0 0 1 2.59-1.13 2.001 2.001 0 0 1 1.132 2.592l-7.438 18.941a2.001 2.001 0 0 1-1.801 1.268zM923.178 502.73a2.002 2.002 0 0 1-1.892-2.804l9.013-20.484a1.999 1.999 0 0 1 2.635-1.025 2.002 2.002 0 0 1 1.028 2.636l-9.013 20.484a1.997 1.997 0 0 1-1.771 1.194zM928.688 547.552a2.001 2.001 0 0 1-1.58-3.3l11.92-13.913a2 2 0 0 1 3.037 2.603l-11.918 13.913c-.381.445-.915.68-1.459.697zM767.378 473.836a2 2 0 0 1-2.008-2.462l5.22-21.951A1.997 1.997 0 0 1 773 447.94a1.998 1.998 0 0 1 1.483 2.408l-5.22 21.95a2.002 2.002 0 0 1-1.884 1.538zM801.265 497.142a1.999 1.999 0 0 1-2.055-2.187l1.857-19.644a2 2 0 0 1 3.982.377l-1.859 19.643a2 2 0 0 1-1.925 1.81zM878.512 524.317a2 2 0 0 1-1.582-3.296l13.966-16.39a1.999 1.999 0 1 1 3.044 2.594l-13.966 16.39c-.38.447-.917.686-1.462.702zM835.621 519.715a2 2 0 0 1-1.926-2.72l6.598-17.06a2.001 2.001 0 0 1 3.731 1.443l-6.597 17.06a2 2 0 0 1-1.806 1.277zM805.766 543.396a2 2 0 0 1-2.06-2.093l.809-17.119a2 2 0 0 1 3.995.189l-.81 17.12a2 2 0 0 1-1.934 1.903zM778.222 511.562a2 2 0 0 1-2.062-2.052l.51-19.07a2 2 0 0 1 4 .106l-.512 19.07a2 2 0 0 1-1.936 1.946zM881.974 561.068a2 2 0 0 1-1.56-3.323l12.915-14.617a2.002 2.002 0 0 1 2.999 2.648l-12.916 14.617c-.381.43-.907.659-1.438.675zM936.413 423.487a2 2 0 0 1-1.847-1.094l-8.238-16.26a1.999 1.999 0 1 1 3.568-1.807l8.24 16.259a2 2 0 0 1-1.723 2.902zM840.127 555.96a2 2 0 0 1-1.675-3.18l10.777-14.718a2.001 2.001 0 0 1 3.228 2.362l-10.777 14.718c-.379.517-.958.8-1.553.818z" opacity="1"/><path fill="#0097A7" d="M908.12 587.068c-4.674.142-15.68.21-25.976-1.702a1.5 1.5 0 1 1 .547-2.949c12.906 2.396 27.467 1.566 27.608 1.558 6.099-.113 14.236-1.559 22.473-3.971a1.5 1.5 0 1 1 .845 2.878c-8.484 2.483-16.928 3.96-23.2 4.09a84.98 84.98 0 0 1-2.296.096zM803.028 555.796a1.496 1.496 0 0 1-.883-.254c-2.371-1.6-4.71-3.282-6.947-5.001a1.499 1.499 0 1 1 1.827-2.378 136.029 136.029 0 0 0 6.796 4.89 1.498 1.498 0 0 1-.793 2.742z" opacity="1"/></g><path fill="#8BE5EE" d="M63.031 22.032c-8.269 23.653-43.19 32.964-78.002 20.796-34.811-12.168-56.328-41.207-48.061-64.86 8.268-23.654 43.191-32.964 78.002-20.796C49.781-30.66 71.299-1.621 63.031 22.032z" opacity="1" style="display:block" transform="rotate(-1.743 14831.523 -28123.738)"/><g opacity="1" style="display:block"><path fill="#FFF" d="M819.805 440.108s5.136-.853 7.39-2.966c1.409-1.32 3.448-3.492 1.34-8.303-2.371-5.412-5.729-5.58-9.116-5.117-2.148.295-5.02 1.965-5.02 1.965s3.425 11.233 5.406 14.421z" opacity="1"/><path fill="#0097A7" d="M861.039 462.381c-8.642.263-18.648-1.226-28.5-6.69-12.39-6.871-17.047-16.423-18.773-23.226-1.875-7.392-.786-13.16-.738-13.402a2.502 2.502 0 0 1 2.932-1.975 2.501 2.501 0 0 1 1.976 2.926c-.152.808-3.505 19.918 17.026 31.303 23.267 12.903 48.456 1.042 48.708.92a2.5 2.5 0 0 1 2.179 4.5c-.69.335-11.014 5.224-24.81 5.644z" opacity="1"/></g><path fill="#0097A7" d="M18.636 13.02c-.89 0-1.751-.476-2.202-1.314-.054-.099-5.614-10.191-15.377-14.852-9.783-4.671-19.394-3.288-19.489-3.272a2.51 2.51 0 0 1-2.849-2.092 2.498 2.498 0 0 1 2.084-2.849c.451-.071 11.18-1.661 22.408 3.701C14.479-2.278 20.58 8.862 20.834 9.333a2.5 2.5 0 0 1-2.198 3.687z" opacity="1" style="display:block" transform="rotate(-1.743 14046.232 -28100.255)"/><path fill="#0097A7" d="M-.799 6.687a7.936 7.936 0 0 1-2.776-.488c-1.661-.618-2.938-1.829-3.697-3.504-.977-2.158-.992-4.941-.038-7.445a2.5 2.5 0 0 1 4.672 1.78c-.467 1.228-.499 2.675-.079 3.603.27.594.635.786.886.88 1.833.683 4.328-.718 4.93-2.298A2.499 2.499 0 1 1 7.771.994C6.468 4.418 2.802 6.687-.799 6.687z" opacity="1" style="display:block" transform="rotate(-1.743 14216.45 -27540.67)"/><path fill="#0097A7" d="M-.147 6.631a7.694 7.694 0 0 1-3.728-.976C-7.465 3.686-8.436-.437-6.347-4.849a2.5 2.5 0 1 1 4.519 2.14c-.531 1.122-1.191 3.131.358 3.981.719.394 1.458.46 2.261.201C2.006 1.079 2.94.08 3.327-.735a2.5 2.5 0 1 1 4.517 2.142C6.795 3.62 4.683 5.468 2.332 6.23a8.062 8.062 0 0 1-2.479.401z" opacity="1" style="display:block" transform="rotate(-1.743 14474.78 -28162.594)"/><g opacity="1" style="display:block"><path fill="#F4F4F4" d="m455.912 791.518 1.516-6.421-11.895-.129 1.377 6.452c-9.571 1.962-16.82 10.371-16.93 20.539-.036 3.285 1.344 3.323 1.91 3.932l38.212.413c1.227-.288 2.257-.601 2.293-3.887.11-10.167-6.957-18.731-16.483-20.9z" opacity="1"/><path fill="#FF5252" d="m455.912 791.517 1.516-6.421-11.895-.129 1.377 6.452c-9.571 1.962-16.82 10.372-16.93 20.54l42.415.458c.11-10.167-6.957-18.732-16.483-20.9z" opacity="1"/><path fill="#FF5252" d="M429.98 811.958c-.036 3.285.844 3.327 2.399 4.054l36.76.397 1.45.016c1.613-.916 1.77-.723 1.806-4.009l-42.416-.458z" opacity="1"/></g><path fill="#8BE5EE" d="M-237 358.479c-25.139 11.495-48 .072-48 .072l-4.756 29.997 56.498-3.058-3.742-27.011z" opacity="1" style="display:block" transform="rotate(-.059 427203.32 -679399.416)"/></g><g clip-path="url(#bb)" opacity="1" style="display:block" transform="rotate(-.745 703.847 1633.269)"><g opacity=".122"><path fill="none" stroke="#0097A7" stroke-linecap="round" stroke-width="2.001" d="M-277.5 347.25s1.25 10.5 28.25 11c26.514.491 27.5-10.25 27.5-10.25" opacity="1" style="display:block" transform="matrix(1.6923 0 0 1.70657 884.055 214.22)"/></g></g></g></g></svg>